<?xml version="1.0" standalone="no"?>
<!DOCTYPE svg PUBLIC "-//W3C//DTD SVG 20010904//EN"
 "http://www.w3.org/TR/2001/REC-SVG-20010904/DTD/svg10.dtd">
<svg version="1.0" xmlns="http://www.w3.org/2000/svg"
 width="878.000000pt" height="1013.000000pt" viewBox="0 0 878.000000 1013.000000"
 preserveAspectRatio="xMidYMid meet">

<g transform="translate(0.000000,1013.000000) scale(0.100000,-0.100000)"
fill="#000000" stroke="none">
<path d="M4319 10119 c-632 -32 -1213 -236 -1548 -545 -205 -188 -303 -367
-325 -595 -24 -236 119 -524 356 -716 346 -281 807 -449 1396 -508 81 -9 149
-20 150 -25 2 -6 8 -8 12 -5 5 3 12 1 15 -5 4 -6 3 -10 -2 -9 -4 1 -15 0 -23
-2 -40 -7 170 -13 280 -7 274 14 440 35 658 84 597 133 1069 450 1226 822 27
64 56 170 55 198 0 11 -9 -11 -18 -47 -84 -312 -379 -594 -815 -778 -120 -51
-345 -123 -362 -117 -8 3 -14 1 -14 -4 0 -5 -6 -7 -14 -4 -9 4 -13 16 -10 37
4 24 2 28 -5 17 -8 -12 -10 -11 -9 7 1 12 7 19 14 16 13 -5 14 14 1 34 -4 6
-1 18 7 25 8 9 13 32 11 63 -1 28 3 57 9 65 9 13 9 13 -5 2 -14 -10 -18 -10
-22 3 -10 26 34 61 144 112 154 73 271 153 374 258 147 150 211 297 203 465
-10 190 -119 369 -312 518 -75 58 -236 151 -315 182 -46 19 -61 30 -66 49 -5
20 -8 22 -16 10 -7 -11 -9 -11 -9 4 0 10 -4 16 -9 12 -5 -3 -12 -1 -16 4 -3 6
6 8 22 5 l28 -4 -24 13 c-19 12 -21 15 -7 20 16 6 16 42 0 81 -5 13 -4 17 3
13 6 -4 13 0 16 8 4 10 1 12 -10 8 -11 -4 -14 -2 -9 5 4 7 3 12 -3 12 -6 0 -8
7 -4 16 5 13 7 13 14 2 12 -18 11 -5 -1 27 -6 16 -6 24 0 20 14 -9 30 29 19
46 -7 12 -9 12 -9 0 0 -12 -3 -11 -12 2 -22 30 -366 90 -580 102 -211 11 -289
12 -439 4z m1009 -334 c-3 -3 -9 2 -12 12 -6 14 -5 15 5 6 7 -7 10 -15 7 -18z
m-1626 -107 c-17 -17 -15 -33 2 -19 11 9 15 7 19 -8 3 -15 1 -18 -12 -14 -14
4 -14 3 1 -7 17 -10 14 -45 -2 -35 -5 3 -12 0 -16 -6 -4 -8 -3 -9 4 -5 7 4 12
2 12 -3 0 -6 3 -10 8 -10 20 3 25 -2 12 -12 -12 -9 -10 -10 8 -6 18 4 21 3 12
-8 -8 -9 -8 -15 0 -20 6 -4 10 -12 9 -18 -3 -24 1 -37 12 -37 8 0 7 6 -2 18
-12 15 -12 16 2 5 9 -7 18 -12 20 -10 3 1 -3 -5 -13 -15 -10 -9 -14 -18 -9
-20 27 -9 8 -31 -75 -86 -207 -139 -307 -315 -276 -483 45 -245 293 -436 699
-539 33 -8 44 -17 49 -35 3 -14 10 -22 15 -19 5 3 6 10 3 16 -4 7 -2 8 5 4 8
-5 9 -12 2 -20 -13 -16 -22 -68 -10 -61 5 4 7 10 4 15 -3 4 3 14 12 21 15 12
16 12 8 -1 -9 -15 -15 -93 -6 -85 6 7 31 -16 31 -29 0 -6 -4 -5 -9 3 -6 9 -8
5 -8 -14 0 -19 2 -23 8 -14 7 12 9 12 9 0 0 -10 3 -11 14 -2 11 9 16 9 22 0 4
-7 3 -9 -3 -6 -6 4 -17 -1 -24 -11 -7 -9 -9 -14 -5 -10 5 4 15 0 23 -10 14
-16 14 -16 9 1 -7 23 1 22 14 -2 7 -15 7 -19 -5 -17 -8 1 -18 5 -21 9 -12 11
-26 8 -18 -4 7 -12 1 -12 -197 21 -477 80 -876 317 -1017 605 -80 164 -75 358
15 515 104 182 298 334 568 446 85 36 118 43 97 22z m68 -94 c0 -8 -19 -13
-24 -6 -3 5 1 9 9 9 8 0 15 -2 15 -3z m21 -38 c-5 -6 -7 -19 -5 -29 1 -11 0
-16 -4 -12 -12 12 -9 52 4 52 9 0 10 -5 5 -11z m654 -66 c5 -8 11 -8 20 0 9 8
15 8 20 0 3 -6 12 -7 18 -3 19 12 38 12 31 1 -4 -6 6 -8 25 -5 17 3 29 2 26
-3 -3 -4 2 -11 11 -14 8 -3 12 -2 9 4 -3 6 1 7 9 4 9 -3 13 -11 9 -17 -4 -6 2
-8 15 -5 14 4 20 2 16 -4 -4 -6 -1 -9 6 -6 15 5 57 -32 52 -46 -2 -5 4 -6 13
-2 10 3 14 2 10 -5 -4 -6 1 -13 12 -15 10 -3 23 -13 28 -23 6 -10 25 -47 44
-82 40 -74 40 -73 41 -159 2 -93 -3 -133 -18 -148 -7 -8 -10 -18 -7 -23 4 -5
1 -9 -5 -9 -6 0 -8 -4 -5 -10 3 -5 1 -10 -4 -10 -6 0 -11 -9 -11 -20 0 -11 -4
-20 -10 -20 -5 0 -10 -7 -10 -16 0 -8 -4 -13 -9 -10 -5 3 -21 -10 -35 -29 -15
-19 -34 -35 -42 -35 -7 0 -14 -5 -14 -11 0 -5 -4 -8 -9 -5 -5 3 -14 -1 -21 -9
-7 -8 -21 -15 -32 -15 -10 0 -17 -4 -14 -8 2 -4 -10 -9 -28 -10 -41 -3 -73 -9
-86 -17 -18 -11 -51 -14 -45 -4 4 5 -11 9 -34 9 -23 0 -64 11 -92 25 -29 13
-56 22 -61 19 -4 -3 -7 0 -6 7 2 7 -2 13 -8 14 -6 0 -18 8 -28 18 -10 9 -22
17 -27 17 -5 0 -9 6 -9 13 0 7 -9 19 -20 27 -14 10 -16 16 -7 22 9 6 8 8 -4 8
-17 0 -53 66 -44 81 4 5 1 9 -5 9 -6 0 -8 5 -5 10 3 6 1 10 -5 10 -7 0 -9 7
-6 16 4 9 1 23 -5 30 -6 8 -9 23 -6 34 3 11 1 23 -4 26 -6 4 -6 11 1 19 6 8
11 32 12 54 0 23 5 41 11 41 6 0 8 3 4 6 -3 4 1 21 10 38 10 17 16 34 15 39
-1 4 2 7 6 7 4 0 16 14 26 30 9 17 22 27 28 24 7 -5 8 -2 4 5 -9 14 21 51 41
51 7 0 13 5 13 10 0 6 6 10 14 10 7 0 19 6 26 14 6 8 19 12 27 9 11 -4 14 -2
9 5 -4 7 -4 12 1 13 4 0 17 3 28 5 11 3 30 5 43 6 12 0 22 4 22 9 0 12 17 11
25 -1z m-638 -25 c0 -8 -4 -12 -9 -9 -5 3 -6 10 -3 15 9 13 12 11 12 -6z m418
-1255 c-3 -5 -12 -10 -18 -10 -7 0 -6 4 3 10 19 12 23 12 15 0z m1125 -106 c0
-8 -19 -13 -24 -6 -3 5 1 9 9 9 8 0 15 -2 15 -3z m0 -28 c0 -3 -4 -8 -10 -11
-5 -3 -10 -1 -10 4 0 6 5 11 10 11 6 0 10 -2 10 -4z m-33 -21 c0 -8 -4 -12 -9
-9 -5 3 -6 10 -3 15 9 13 12 11 12 -6z m33 -26 c0 -5 -4 -9 -8 -9 -5 0 -9 7
-9 15 0 8 4 12 9 9 4 -3 8 -9 8 -15z"/>
<path d="M2568 8368 c-138 -216 -155 -474 -48 -704 34 -73 60 -111 60 -86 0
21 124 162 199 227 94 79 218 169 267 193 19 8 34 19 34 23 0 4 -31 25 -70 48
-115 68 -223 155 -318 257 l-91 95 -33 -53z"/>
<path d="M3183 7932 c-189 -101 -359 -253 -452 -404 -28 -45 -51 -88 -51 -95
0 -15 95 -107 176 -171 123 -97 361 -226 531 -288 l74 -27 42 22 c23 12 63 34
88 49 25 15 69 40 97 56 28 16 49 33 45 39 -4 6 -1 7 6 3 7 -5 19 0 27 10 9
11 12 12 8 4 -6 -11 -2 -10 13 3 11 9 25 17 31 17 6 0 14 5 18 12 5 7 3 8 -6
3 -10 -6 -12 -4 -7 8 3 9 3 18 -1 20 -4 2 -2 2 5 1 7 -2 15 1 18 6 4 6 11 10
17 10 6 0 5 -7 -3 -17 -12 -16 -12 -17 2 -6 12 10 18 10 28 0 10 -9 12 -9 9 3
-2 8 -14 20 -28 27 l-25 12 28 -4 c15 -2 25 0 22 5 -3 4 1 10 7 13 8 3 3 9
-12 15 -14 6 -19 11 -12 11 7 1 10 6 6 13 -5 7 0 9 14 6 16 -4 19 -2 15 10 -5
11 -2 14 10 9 14 -5 16 -2 13 18 -3 14 -8 30 -12 37 -4 7 3 4 17 -7 14 -12 19
-14 11 -4 -10 13 -10 19 1 28 8 6 17 9 20 6 4 -3 5 -2 2 2 -3 3 1 13 8 21 10
13 9 14 -2 8 -9 -6 -12 -5 -9 5 3 8 12 13 22 11 9 -2 16 2 16 8 0 6 4 8 10 5
6 -3 7 1 4 10 -4 9 0 21 7 28 8 7 12 11 10 10 -2 -2 -10 2 -18 9 -11 9 -12 7
-7 -8 4 -14 3 -15 -4 -5 -7 9 -12 10 -16 2 -4 -6 -2 -11 4 -11 6 0 10 -8 8
-17 -2 -10 -8 -18 -13 -18 -19 0 -36 -17 -31 -31 3 -7 1 -16 -4 -19 -4 -3 -7
7 -5 22 1 15 7 29 13 31 6 2 8 10 5 18 -4 11 -9 9 -25 -9 l-19 -22 17 27 c9
15 20 26 24 23 4 -2 16 5 26 17 17 19 17 21 2 15 -10 -3 -20 -1 -24 6 -4 7 -3
8 1 4 5 -4 16 6 25 24 14 26 18 28 23 15 4 -9 3 -15 -2 -12 -5 3 -11 -1 -15
-9 -3 -8 0 -18 7 -22 15 -9 41 -14 33 -6 -3 4 2 16 11 27 17 20 17 20 -1 6
-18 -14 -19 -13 -13 3 4 12 3 16 -4 11 -6 -3 -10 1 -9 12 1 11 1 21 0 24 -1 3
-3 16 -6 30 -3 18 -2 21 5 10 5 -8 8 -17 5 -22 -2 -4 4 -12 15 -17 22 -12 58
-15 48 -4 -4 3 -1 13 6 21 8 11 8 14 0 9 -6 -4 -15 -2 -18 4 -4 5 -13 8 -21 5
-7 -3 -16 -2 -18 3 -3 4 1 8 9 9 8 1 22 3 30 4 12 1 12 4 2 16 -10 13 -9 14 9
8 15 -5 24 -2 28 10 5 14 4 15 -9 4 -13 -11 -15 -9 -13 10 3 19 -2 22 -37 25
-189 13 -546 105 -754 194 -84 36 -85 36 -128 13z m897 -247 c-5 -7 -7 -15 -3
-18 3 -4 1 -7 -5 -7 -6 0 -10 8 -9 18 0 10 7 19 14 19 9 0 10 -4 3 -12z m-3
-77 c-3 -8 -6 -5 -6 6 -1 11 2 17 5 13 3 -3 4 -12 1 -19z m-134 -211 c3 -8 -1
-14 -8 -14 -7 0 -11 6 -8 14 3 7 6 13 8 13 2 0 5 -6 8 -13z m-36 -78 c-7 -12
-13 -15 -16 -7 -2 7 1 14 8 16 6 2 8 9 5 14 -4 7 -2 8 4 4 9 -5 8 -12 -1 -27z
m-36 -12 c-10 -9 -11 -8 -5 6 3 10 9 15 12 12 3 -3 0 -11 -7 -18z m19 -61 c0
-3 -4 -8 -10 -11 -5 -3 -10 -1 -10 4 0 6 5 11 10 11 6 0 10 -2 10 -4z m-87
-66 c3 -11 2 -18 -3 -15 -4 3 -10 14 -13 25 -3 11 -2 18 3 15 4 -3 10 -14 13
-25z"/>
<path d="M4139 7683 c-13 -16 -12 -17 4 -4 16 13 21 21 13 21 -2 0 -10 -8 -17
-17z"/>
<path d="M3980 7471 c0 -5 5 -13 10 -16 6 -3 10 -2 10 4 0 5 -4 13 -10 16 -5
3 -10 2 -10 -4z"/>
<path d="M4045 7451 c-3 -5 -2 -12 3 -15 5 -3 9 1 9 9 0 17 -3 19 -12 6z"/>
<path d="M7840 7398 c-55 -15 -98 -54 -106 -93 -8 -45 2 -85 22 -85 46 0 158
35 185 57 l31 26 -7 -71 c-4 -39 -4 -79 -1 -89 7 -16 9 -15 26 7 l20 25 0 -57
c0 -31 4 -59 9 -62 31 -19 70 98 71 211 0 44 -5 58 -30 86 -44 51 -135 69
-220 45z"/>
<path d="M3510 6924 c-41 -8 -113 -33 -160 -56 -115 -55 -226 -166 -288 -286
-23 -46 -42 -90 -42 -97 0 -19 123 -97 255 -162 l110 -54 19 28 c128 183 371
248 626 168 179 -57 328 -152 496 -317 l91 -90 129 11 c71 6 141 14 156 17
l27 5 -71 92 c-93 118 -330 356 -433 433 -212 160 -413 264 -580 300 -54 12
-83 15 -165 19 -63 3 -120 -1 -170 -11z"/>
<path d="M7904 6806 c-8 -22 3 -49 19 -43 6 2 12 14 12 27 0 27 -22 39 -31 16z"/>
<path d="M7907 6743 c-2 -5 -12 -48 -22 -98 -17 -90 -17 -90 9 -239 39 -227
59 -220 70 26 6 140 0 200 -30 301 -6 18 -20 23 -27 10z"/>
<path d="M7331 6721 c-14 -4 -27 -13 -29 -20 -4 -11 0 -12 14 -6 11 4 35 14
54 21 30 11 31 13 10 13 -14 -1 -36 -4 -49 -8z"/>
<path d="M2970 6343 c0 -5 -7 -53 -15 -108 -53 -362 49 -856 264 -1282 l39
-79 -401 -226 c-221 -125 -647 -364 -946 -533 l-545 -307 -38 22 c-29 16 -38
18 -38 7 0 -7 17 -23 38 -35 l37 -21 555 311 c305 171 731 409 945 529 215
121 396 219 402 219 6 0 30 -33 53 -72 24 -40 74 -119 111 -175 l68 -101
-1065 -616 c-944 -545 -1068 -614 -1088 -605 -22 10 -23 18 -30 142 -7 127
-21 217 -35 217 -3 0 -22 -5 -41 -10 -117 -35 -293 -28 -387 15 -30 14 -57 25
-58 25 -1 0 -11 -21 -21 -47 -29 -73 -25 -182 9 -255 l27 -58 3 -676 c3 -659
3 -677 22 -691 12 -8 37 -13 60 -11 34 3 42 8 57 37 9 18 26 40 37 47 31 22
71 97 71 132 0 26 -5 33 -27 38 -15 4 -34 2 -45 -5 -20 -13 -20 -14 -2 89 8
49 33 448 40 655 5 137 10 198 15 175 9 -40 32 -413 51 -810 12 -274 13 -306
7 -409 -2 -47 0 -56 21 -73 18 -14 34 -18 57 -15 37 6 82 36 83 55 0 6 4 12 9
12 4 0 30 19 56 42 48 43 77 91 68 115 -8 20 -72 15 -110 -9 l-35 -21 6 29 c3
16 10 189 16 384 6 195 13 362 15 370 3 8 38 33 78 56 39 22 591 340 1226 707
634 368 1157 667 1161 665 4 -2 40 -33 81 -70 240 -217 472 -358 699 -425 85
-25 110 -28 245 -28 162 0 200 8 317 66 74 37 186 143 237 224 74 116 124 263
137 398 6 60 9 68 26 64 10 -3 18 0 19 6 1 7 5 1 9 -13 5 -14 8 -18 9 -9 1 9
9 23 19 30 15 13 16 12 3 -3 -12 -17 -8 -23 13 -19 4 1 19 -5 32 -14 28 -18
38 -19 28 -2 -5 7 -1 6 10 -3 17 -13 17 -14 -1 -21 -16 -5 -16 -7 5 -13 22 -7
31 -36 11 -36 -5 0 -8 4 -4 9 3 5 1 12 -4 16 -6 3 -15 -3 -20 -14 -15 -27 -14
-36 3 -22 11 10 16 8 20 -6 6 -18 46 -27 43 -10 -1 5 6 11 16 12 19 4 23 -11
5 -18 -8 -3 -6 -6 5 -6 9 -1 17 -6 17 -12 0 -6 -9 -8 -22 -4 -17 5 -19 4 -9
-3 8 -6 11 -18 7 -28 -5 -17 -5 -17 7 -2 7 9 24 18 37 20 57 8 118 193 140
422 6 66 12 121 13 122 1 0 54 30 117 64 63 35 117 66 120 69 3 3 36 22 73 41
71 36 84 46 72 58 -4 4 -12 -1 -19 -10 -7 -10 -16 -15 -19 -11 -4 3 -7 2 -7
-4 0 -5 -6 -10 -12 -10 -7 0 -83 -39 -168 -87 -172 -95 -167 -95 -169 -4 l-1
36 186 105 c102 57 185 107 185 111 -1 3 -1 86 -1 184 l0 177 148 79 c152 81
169 92 160 101 -3 3 -78 -33 -166 -81 l-162 -86 -2 -185 -3 -186 -168 -95
c-92 -52 -170 -92 -173 -89 -3 3 -8 23 -11 44 l-5 38 141 80 141 80 0 185 0
185 156 90 c85 50 177 102 202 116 30 16 48 34 50 47 2 12 0 22 -3 22 -4 0
-106 -57 -226 -126 l-219 -126 -2 -185 -3 -186 -119 -69 c-65 -38 -119 -68
-121 -66 -1 2 -10 44 -19 93 -42 216 -128 460 -240 685 -93 186 -115 222 -135
216 -78 -23 -263 -68 -336 -81 -152 -28 -138 -21 -119 -53 l17 -27 -24 28 -24
28 -105 -11 c-58 -6 -124 -13 -147 -16 l-42 -5 52 -72 c75 -102 127 -188 187
-308 157 -311 224 -617 200 -909 -16 -196 -70 -332 -174 -436 -99 -99 -194
-137 -341 -138 -232 0 -481 129 -730 379 -194 194 -334 398 -446 647 -170 380
-211 743 -118 1035 2 8 -35 30 -96 58 -55 25 -135 65 -177 90 -81 47 -88 50
-88 38z m2110 -463 c6 -11 8 -20 6 -20 -3 0 -10 9 -16 20 -6 11 -8 20 -6 20 3
0 10 -9 16 -20z m30 -50 c6 -11 8 -20 6 -20 -3 0 -10 9 -16 20 -6 11 -8 20 -6
20 3 0 10 -9 16 -20z m50 -90 c17 -33 28 -60 25 -60 -2 0 -18 27 -35 60 -17
33 -28 60 -25 60 2 0 18 -27 35 -60z m109 -225 c0 -5 -13 15 -29 45 -16 30
-29 60 -29 65 0 6 13 -15 29 -45 16 -30 29 -59 29 -65z m48 -122 c-3 -2 -12
15 -22 39 -28 69 -27 78 0 19 14 -29 24 -55 22 -58z m48 -123 c19 -57 35 -109
34 -114 0 -6 -16 34 -35 89 -44 127 -48 141 -40 134 3 -3 22 -53 41 -109z m42
-152 c-3 -8 -6 -5 -6 6 -1 11 2 17 5 13 3 -3 4 -12 1 -19z m10 -40 c-3 -8 -6
-5 -6 6 -1 11 2 17 5 13 3 -3 4 -12 1 -19z m10 -40 c-3 -8 -6 -5 -6 6 -1 11 2
17 5 13 3 -3 4 -12 1 -19z m10 -50 c-3 -7 -5 -2 -5 12 0 14 2 19 5 13 2 -7 2
-19 0 -25z m10 -50 c-3 -7 -5 -2 -5 12 0 14 2 19 5 13 2 -7 2 -19 0 -25z m10
-50 c-3 -7 -5 -2 -5 12 0 14 2 19 5 13 2 -7 2 -19 0 -25z m20 -145 c-3 -10 -5
-2 -5 17 0 19 2 27 5 18 2 -10 2 -26 0 -35z m16 -181 c2 -72 0 -132 -4 -132
-5 0 -9 62 -9 137 0 75 2 134 4 132 2 -2 6 -64 9 -137z m43 -78 c-11 -8 -14
-14 -8 -14 7 0 12 -7 12 -15 0 -8 -8 -15 -17 -15 -15 0 -16 2 -3 10 10 6 11
10 3 10 -7 0 -13 7 -13 15 0 8 7 15 16 15 11 0 14 5 9 18 -5 14 -4 15 7 4 11
-11 10 -16 -6 -28z m-1970 -76 c27 -35 73 -89 102 -122 29 -32 51 -60 50 -61
-2 -1 -255 -147 -563 -325 -308 -178 -803 -463 -1100 -635 -767 -443 -756
-437 -761 -432 -5 5 15 368 22 405 5 22 6 23 28 9 21 -14 39 -6 377 190 195
113 442 256 549 318 107 62 429 248 715 413 286 166 523 302 526 302 3 0 28
-28 55 -62z m2114 -98 c0 -5 -8 -10 -17 -10 -15 0 -16 2 -3 10 19 12 20 12 20
0z m87 -25 c0 -8 -4 -12 -9 -9 -4 3 -8 0 -8 -7 0 -7 -3 -9 -6 -6 -4 4 -1 13 6
22 15 19 17 19 17 0z"/>
<path d="M3386 6093 c-21 -64 -27 -125 -16 -143 9 -13 10 -13 10 0 0 13 2 13
9 0 6 -8 7 -18 5 -22 -3 -4 2 -5 11 -2 13 5 13 9 3 22 -11 13 -11 14 0 8 7 -4
17 -19 23 -33 5 -13 14 -21 19 -18 6 4 8 11 5 16 -4 5 -2 9 4 9 6 0 13 -11 17
-25 3 -14 10 -25 15 -25 5 0 7 -6 5 -12 -1 -7 -1 -10 1 -5 3 4 9 7 14 7 6 0 7
-6 3 -12 -5 -9 -3 -9 9 1 15 12 15 31 1 31 -3 0 -2 -5 2 -12 4 -7 3 -8 -5 -4
-6 4 -9 12 -6 17 4 5 -2 9 -12 9 -15 0 -16 2 -3 10 11 7 22 2 42 -23 15 -17
28 -28 28 -23 0 6 7 1 16 -10 15 -19 15 -19 11 2 -2 12 1 21 8 21 7 0 10 -8 7
-19 -2 -10 3 -27 13 -38 10 -11 14 -24 10 -32 -6 -10 -5 -11 6 0 18 17 29 15
29 -5 0 -13 2 -15 8 -5 6 9 21 11 52 6 34 -6 40 -9 25 -14 -11 -4 -26 -3 -33
3 -7 5 -15 7 -18 4 -3 -3 4 -10 15 -17 12 -6 19 -16 16 -23 -4 -7 0 -4 8 5 10
13 16 15 25 6 9 -9 15 -9 24 0 15 15 28 15 28 1 0 -5 -4 -7 -10 -4 -5 3 -10 1
-10 -4 0 -14 13 -14 28 1 9 9 12 8 12 -6 0 -9 -4 -14 -10 -11 -6 4 -9 -5 -8
-19 2 -16 6 -22 12 -16 6 6 16 5 28 -1 15 -8 17 -13 7 -25 -7 -8 -7 -14 -1
-14 20 0 21 30 2 42 -26 16 -26 32 -1 18 27 -14 30 -5 28 82 -2 92 -17 117
-101 167 -42 25 -56 39 -56 56 0 20 -9 26 -57 40 -61 16 -245 73 -268 81 -8 4
-18 -11 -29 -43z"/>
<path d="M7840 6090 c0 -39 3 -50 16 -50 13 0 15 7 10 31 -3 17 -6 40 -6 50 0
11 -4 19 -10 19 -5 0 -10 -22 -10 -50z"/>
<path d="M8065 6038 c-16 -5 -89 -11 -162 -13 -145 -3 -168 -8 -178 -33 -18
-46 -16 -235 4 -412 18 -164 36 -398 70 -930 l10 -155 -31 -25 c-102 -80 -158
-133 -158 -149 0 -19 26 -31 68 -31 31 0 143 52 166 78 10 12 22 19 27 16 5
-2 27 5 50 16 40 21 41 23 34 58 -11 52 -12 70 -19 417 -3 171 -9 355 -12 410
-3 54 -3 97 0 95 13 -14 49 -341 70 -645 3 -38 8 -115 12 -170 3 -55 11 -108
16 -118 12 -23 -2 -44 -82 -133 -81 -89 -79 -114 9 -114 40 0 106 37 150 84
14 14 32 26 42 26 10 0 30 11 45 24 28 23 28 24 12 64 -14 36 -16 107 -13 614
3 549 4 577 25 677 27 127 23 165 -29 270 -22 43 -37 81 -34 85 10 10 -59 5
-92 -6z"/>
<path d="M4130 5950 c0 -19 10 -30 39 -46 44 -24 51 -19 51 36 0 26 -3 28 -45
32 -42 3 -45 2 -45 -22z"/>
<path d="M4360 5876 c0 -80 1 -84 28 -102 49 -32 154 -138 187 -189 17 -27 39
-72 48 -99 19 -55 22 -163 7 -215 -8 -30 -7 -33 10 -28 11 3 18 1 14 -4 -3 -5
0 -9 7 -9 10 0 10 -3 1 -12 -7 -7 -12 -17 -12 -22 0 -6 4 -5 8 2 11 17 49 23
49 9 0 -7 4 -21 8 -32 7 -16 6 -18 -6 -7 -7 6 -17 12 -23 12 -5 0 -1 -8 10
-18 17 -17 20 -17 31 -3 11 14 12 14 13 -1 0 -10 3 -18 8 -19 4 0 19 -2 35 -4
15 -2 27 1 27 7 0 6 2 9 5 6 3 -3 1 -16 -4 -29 -7 -19 -4 -27 13 -40 21 -16
22 -16 23 2 1 12 -3 16 -13 12 -8 -3 -14 -1 -14 4 0 5 14 10 30 11 28 2 30 1
20 -18 -6 -11 -8 -21 -5 -21 23 -6 33 -4 54 9 19 11 22 11 15 1 -14 -23 -13
-41 1 -36 7 3 23 -2 36 -11 l24 -16 -20 25 c-15 18 -16 20 -2 10 12 -10 21
-10 30 -3 10 9 13 4 15 -18 1 -16 -3 -32 -8 -35 -7 -4 -9 2 -7 17 2 12 2 17 0
11 -3 -7 -8 -13 -12 -13 -4 0 -8 -7 -8 -16 0 -11 7 -14 23 -10 13 4 24 1 27
-7 2 -6 15 -12 30 -12 14 -1 23 3 20 9 -3 5 -1 6 5 2 7 -4 12 -14 12 -22 0 -8
-4 -12 -10 -9 -14 9 -12 -1 3 -13 19 -16 20 28 2 128 -48 261 -193 583 -368
817 l-62 83 -152 0 -153 0 0 -84z m384 -681 c-4 -8 -11 -15 -16 -15 -6 0 -5 6
2 15 7 8 14 15 16 15 2 0 1 -7 -2 -15z m171 -105 c-3 -4 -14 -10 -25 -13 -16
-4 -19 -2 -11 7 11 13 43 18 36 6z m155 -101 c0 -14 -29 -17 -34 -4 -3 9 2 13
15 12 10 -1 19 -4 19 -8z"/>
<path d="M3559 5839 c13 -10 29 -19 37 -19 8 0 14 -4 14 -10 0 -5 6 -10 13
-10 17 1 -42 47 -67 54 -19 5 -19 4 3 -15z"/>
<path d="M4130 5660 c0 -70 3 -89 13 -84 8 5 7 2 -2 -9 -8 -10 -11 -21 -7 -24
4 -4 11 -1 15 6 13 21 29 5 23 -24 -5 -29 0 -31 22 -10 14 14 15 12 11 -15 -2
-22 1 -30 11 -30 11 0 13 6 9 23 -7 22 -7 22 9 2 9 -12 15 -15 16 -7 0 7 5 10
10 7 6 -4 7 -11 4 -17 -5 -8 -1 -9 10 -5 14 5 17 3 12 -8 -3 -9 0 -15 11 -15
10 0 13 -4 7 -13 -5 -7 0 -4 10 8 15 15 18 16 13 3 -5 -15 11 -29 38 -33 6 0
9 -6 7 -13 -5 -24 16 -11 28 17 20 50 -3 119 -62 186 -32 38 -79 72 -160 119
l-48 28 0 -92z"/>
<path d="M4130 5520 c0 -5 7 -7 15 -4 8 4 15 8 15 10 0 2 -7 4 -15 4 -8 0 -15
-4 -15 -10z"/>
<path d="M4240 5466 c0 -2 7 -9 15 -16 9 -7 15 -8 15 -2 0 5 -7 12 -15 16 -8
3 -15 4 -15 2z"/>
<path d="M4305 5410 c-3 -5 1 -10 9 -10 8 0 18 5 21 10 3 6 -1 10 -9 10 -8 0
-18 -4 -21 -10z"/>
<path d="M4676 5202 c-3 -5 1 -9 9 -9 8 0 12 4 9 9 -3 4 -7 8 -9 8 -2 0 -6 -4
-9 -8z"/>
<path d="M965 5172 c-58 -27 -102 -82 -110 -137 -22 -143 49 -285 142 -285 29
0 44 8 74 40 20 21 43 55 50 75 13 35 40 47 55 24 10 -17 24 10 24 48 0 20 9
42 25 59 17 19 23 34 19 48 -30 103 -183 173 -279 128z"/>
<path d="M5745 4231 c-3 -5 0 -13 6 -17 7 -4 9 -3 5 4 -3 5 0 13 6 15 9 4 10
6 1 6 -6 1 -14 -3 -18 -8z"/>
<path d="M4190 3565 c-474 -46 -898 -177 -1203 -372 -357 -228 -540 -503 -540
-813 1 -125 19 -202 74 -315 200 -409 769 -728 1489 -834 123 -18 299 -37 326
-35 6 1 17 -8 23 -19 13 -19 11 -20 -91 -13 -511 34 -987 176 -1319 395 -69
45 -95 58 -101 49 -6 -9 -8 -7 -6 7 4 26 -25 27 -30 1 -2 -10 0 -16 5 -13 4 3
8 -8 9 -24 1 -15 -2 -27 -5 -25 -3 2 -7 -14 -8 -35 -1 -21 2 -39 6 -39 4 0 8
-7 8 -15 0 -10 -6 -14 -15 -10 -12 4 -13 3 -2 -10 7 -8 16 -12 21 -9 5 3 6 -2
3 -10 -3 -9 -10 -14 -14 -11 -4 3 -11 -2 -14 -11 -5 -12 -2 -15 9 -10 14 5 14
4 1 -16 -9 -13 -12 -27 -7 -37 5 -9 8 -31 7 -49 0 -17 2 -32 7 -32 4 0 7 5 7
12 0 6 3 9 6 5 3 -3 3 -14 0 -25 -5 -14 -13 -19 -29 -15 -15 3 -18 2 -9 -5 14
-10 46 -66 34 -58 -5 3 -13 -4 -20 -14 -10 -16 -9 -18 3 -14 16 7 21 -11 5
-21 -5 -3 -6 -13 -3 -21 3 -9 0 -19 -6 -24 -9 -5 -8 -9 4 -13 11 -5 14 -3 9 6
-4 6 -4 9 1 5 4 -4 14 0 21 10 12 16 13 16 20 -1 4 -13 -2 -27 -20 -46 -14
-15 -24 -30 -21 -33 3 -3 0 -17 -6 -32 -10 -21 -10 -29 0 -39 10 -9 11 -8 6 8
-5 15 -4 17 3 6 13 -18 4 -43 -12 -34 -6 3 0 -6 13 -20 13 -15 28 -24 32 -21
5 3 9 0 9 -6 0 -19 195 -139 335 -206 348 -167 762 -260 1217 -271 960 -25
1789 316 2068 849 76 145 80 176 79 632 l0 401 -23 -75 c-31 -100 -41 -124
-83 -195 -170 -281 -496 -507 -938 -648 -167 -53 -159 -51 -149 -36 6 11 5 12
-7 3 -25 -19 -46 -23 -46 -8 0 8 6 13 14 10 10 -4 13 3 11 24 -1 17 -6 30 -11
30 -5 0 -4 7 3 16 11 12 11 15 0 12 -7 -2 -15 3 -17 10 -3 8 1 10 14 5 16 -6
17 -5 3 12 -13 17 -13 18 1 13 12 -5 15 0 14 20 -1 16 -7 26 -14 24 -7 -1 -10
2 -6 8 3 6 10 8 15 5 5 -3 7 9 6 27 -2 22 -8 33 -18 32 -12 -1 -13 3 -4 22 6
13 14 24 18 24 4 0 5 7 2 15 -4 9 -1 15 7 15 21 0 226 101 294 145 163 104
285 233 349 368 171 361 -53 732 -583 965 -90 39 -113 64 -72 75 12 3 19 13
18 25 0 11 -4 19 -8 16 -4 -2 -10 3 -13 12 -3 8 -2 12 4 9 6 -3 10 1 10 9 0 9
4 16 10 16 5 0 7 -7 4 -15 -4 -10 0 -15 12 -15 16 0 17 2 4 10 -11 7 -12 10
-2 10 10 0 10 4 -2 16 -24 24 -19 28 10 9 l27 -17 -19 25 c-10 13 -23 24 -29
22 -5 -1 -7 0 -2 2 4 3 7 12 7 21 0 15 -2 15 -10 2 -6 -9 -10 -10 -10 -3 0 20
15 23 43 8 20 -10 25 -10 21 0 -3 7 -14 16 -25 21 -18 8 -18 11 -5 29 15 19
15 19 10 -5 -2 -14 -2 -19 2 -12 3 6 10 10 15 6 5 -3 4 7 -1 21 -6 15 -8 30
-5 35 11 18 -334 87 -545 110 -160 18 -525 20 -680 5z m1145 -285 c3 -6 -1 -7
-9 -4 -18 7 -21 14 -7 14 6 0 13 -4 16 -10z m1 -56 c-4 -12 -2 -15 9 -10 8 3
15 1 15 -4 0 -13 -27 -13 -35 0 -4 6 -11 7 -17 4 -7 -4 -8 -2 -4 5 4 6 12 9
17 6 5 -4 9 -1 9 4 0 6 3 11 6 11 3 0 3 -7 0 -16z m-1500 -56 c5 -7 2 -9 -7
-4 -8 4 -7 2 2 -6 21 -17 21 -29 2 -50 -9 -10 -13 -19 -10 -19 4 -1 12 -3 17
-4 6 -1 18 -3 28 -4 15 -2 14 -3 -3 -11 -11 -5 -14 -9 -7 -9 6 -1 12 -7 12
-14 0 -7 9 -13 21 -14 12 -1 18 3 16 10 -3 7 -11 11 -18 9 -11 -3 -12 -1 -1 9
7 7 24 14 37 15 14 0 23 -2 19 -5 -3 -3 -10 -6 -16 -6 -6 0 -12 -13 -14 -28
-2 -23 1 -27 13 -23 14 6 14 4 2 -10 -15 -19 -21 -47 -8 -38 5 3 7 11 3 17 -3
7 1 4 9 -5 8 -10 18 -14 22 -10 5 4 5 1 1 -5 -4 -7 -15 -13 -24 -14 -11 0 -13
-2 -4 -6 7 -3 -29 -24 -80 -47 -129 -59 -201 -107 -289 -195 -200 -200 -198
-422 6 -627 119 -120 279 -206 485 -261 52 -14 99 -32 103 -39 5 -8 12 -12 17
-9 5 3 7 -7 4 -21 -5 -25 -3 -26 12 -13 12 9 15 10 10 2 -4 -8 -2 -13 6 -14 7
0 3 -4 -10 -9 -19 -8 -21 -13 -12 -30 6 -11 13 -20 16 -20 3 0 2 5 -2 12 -4 7
-3 8 4 4 7 -4 12 -14 12 -22 0 -10 -5 -12 -12 -8 -9 6 -9 3 0 -9 8 -9 10 -22
6 -28 -5 -8 -2 -10 9 -6 9 3 18 -1 21 -9 9 -24 7 -46 -4 -39 -5 3 -10 1 -10
-4 0 -15 6 -14 38 5 19 11 22 12 10 1 -10 -8 -18 -23 -19 -33 0 -10 -3 -14 -5
-8 -3 6 -15 9 -28 7 -30 -6 -214 22 -315 48 -485 125 -818 366 -914 662 -27
85 -27 229 0 314 34 103 90 191 182 284 131 132 299 233 521 314 102 36 135
42 146 23z m34 -62 c0 -3 -4 -8 -10 -11 -5 -3 -10 -1 -10 4 0 6 5 11 10 11 6
0 10 -2 10 -4z m624 -127 c-2 -4 4 -7 13 -7 10 1 29 -2 42 -6 18 -6 22 -5 16
5 -4 8 2 4 12 -9 15 -18 21 -20 31 -10 8 8 12 8 12 1 0 -6 7 -14 16 -17 15 -6
15 -4 3 11 -13 17 -13 17 7 0 11 -9 23 -14 27 -11 3 3 12 -3 19 -15 7 -12 16
-21 21 -21 4 0 5 5 1 12 -4 7 -3 8 4 4 7 -4 12 -13 12 -19 0 -7 10 -18 23 -26
l22 -14 -20 24 -20 24 23 -19 c12 -11 21 -25 18 -32 -3 -8 0 -11 8 -8 7 3 19
-3 27 -13 13 -17 13 -17 -6 -3 -19 14 -19 14 -6 -3 8 -10 20 -16 27 -13 8 3
11 0 7 -10 -3 -7 0 -14 6 -14 7 0 21 -19 31 -43 11 -23 22 -46 26 -50 4 -4 8
-16 9 -27 1 -18 -12 -25 -38 -21 -4 0 -6 -42 -4 -94 1 -52 -1 -95 -5 -95 -4 0
-5 -7 -2 -15 4 -8 1 -15 -6 -15 -6 0 -9 -4 -5 -9 3 -5 1 -12 -4 -16 -6 -3 -8
-12 -5 -20 3 -7 -4 -23 -15 -34 -12 -12 -21 -25 -21 -31 0 -5 -9 -15 -20 -22
-11 -7 -20 -20 -20 -30 0 -9 -9 -20 -20 -23 -11 -3 -20 -10 -20 -15 0 -4 -12
-11 -27 -15 -16 -3 -36 -14 -46 -23 -11 -9 -26 -17 -35 -17 -10 0 -16 -5 -15
-10 1 -6 -11 -10 -25 -9 -15 0 -42 -3 -60 -7 -17 -4 -35 -3 -38 2 -3 5 -13 5
-25 -1 -11 -7 -19 -7 -19 -1 0 5 -11 8 -25 7 -13 -2 -22 1 -19 6 4 5 -2 9 -12
7 -23 -3 -69 15 -79 30 -3 6 -14 11 -24 11 -10 0 -24 7 -31 15 -7 8 -17 12
-23 8 -6 -3 -7 -1 -3 5 4 7 1 12 -9 12 -9 0 -13 5 -10 10 3 6 0 13 -9 16 -8 3
-18 19 -21 35 -4 17 -12 28 -18 26 -13 -4 -40 41 -32 53 3 4 -1 10 -9 13 -9 4
-12 14 -9 26 3 12 1 21 -3 21 -5 0 -9 38 -10 85 0 47 3 85 6 85 4 0 7 7 7 15
0 9 -14 17 -34 21 -26 5 -33 11 -33 29 0 13 7 30 15 39 8 8 15 19 15 24 0 5 9
19 20 32 11 13 20 29 20 37 0 7 6 12 13 11 6 -2 11 3 10 10 -2 6 4 12 13 12 9
0 12 5 8 12 -4 6 -3 8 4 4 6 -3 25 7 44 24 18 17 43 33 56 36 12 4 22 11 22
17 0 6 3 7 7 4 3 -4 13 -1 21 6 13 10 14 9 7 -3 -5 -9 1 -7 15 5 13 11 20 14
16 8 -5 -9 -2 -11 8 -7 9 3 13 11 9 18 -5 7 -2 7 8 -1 8 -7 20 -8 28 -4 7 5
31 7 53 5 21 -2 37 0 34 4 -3 5 1 9 9 9 8 0 12 -4 9 -8z m851 -1447 c-3 -3
-11 0 -18 7 -9 10 -8 11 6 5 10 -3 15 -9 12 -12z m-1045 2 c0 -8 -19 -13 -24
-6 -3 5 1 9 9 9 8 0 15 -2 15 -3z m1046 -66 c4 -7 4 -10 -1 -6 -4 4 -15 2 -24
-5 -14 -11 -14 -10 -2 6 16 20 18 21 27 5z m-2509 -270 c-3 -8 -6 -5 -6 6 -1
11 2 17 5 13 3 -3 4 -12 1 -19z m43 17 c0 -2 -6 -8 -13 -14 -10 -8 -14 -7 -14
2 0 8 6 14 14 14 7 0 13 -1 13 -2z m-3 -45 c-2 -11 -6 -22 -10 -25 -4 -3 -5
-2 -2 2 3 3 -1 13 -8 21 -9 13 -9 14 1 8 6 -4 12 -2 12 3 0 6 2 11 5 11 3 0 4
-9 2 -20z m-22 -40 c3 -5 1 -10 -4 -10 -6 0 -11 5 -11 10 0 6 2 10 4 10 3 0 8
-4 11 -10z m15 -145 c-5 -7 -7 -14 -4 -18 5 -5 -4 -4 -35 2 -10 2 21 28 34 28
10 0 12 -4 5 -12z m-4 -67 c4 -7 4 -10 -1 -6 -4 4 -15 2 -24 -5 -14 -11 -14
-10 -2 6 16 20 18 21 27 5z"/>
<path d="M3810 3146 c0 -2 8 -10 18 -17 15 -13 16 -12 3 4 -13 16 -21 21 -21
13z"/>
<path d="M5399 3223 c-13 -16 -12 -17 4 -4 9 7 17 15 17 17 0 8 -8 3 -21 -13z"/>
<path d="M6572 2335 c0 -16 2 -22 5 -12 2 9 2 23 0 30 -3 6 -5 -1 -5 -18z"/>
<path d="M2842 1069 c-9 -13 -19 -18 -30 -14 -13 5 -14 3 -5 -6 9 -9 7 -15 -8
-28 -21 -17 -21 -17 3 -18 12 0 18 1 11 4 -7 2 0 15 19 32 17 15 29 33 27 39
-2 7 -9 4 -17 -9z"/>
</g>
</svg>
