<?xml version="1.0" ?><svg data-name="Layer 1" id="Layer_1" viewBox="0 0 128 128" xmlns="http://www.w3.org/2000/svg"><title/><circle cx="64" cy="64" r="2.47"/><path d="M64,13a51,51,0,1,0,51,51A51,51,0,0,0,64,13ZM87.81,85.61A31.69,31.69,0,0,1,61.6,96.16,32.25,32.25,0,0,1,64,31.75a33.6,33.6,0,0,1,18.92,6.33A1.55,1.55,0,0,1,83,40.46l-3,2.77a2.08,2.08,0,0,1-2.58.19,20.69,20.69,0,0,0-9-3.58c-14.78-2.13-28.65,8.67-29,23.6a24.48,24.48,0,0,0,41.64,18,2.08,2.08,0,0,1,2.55-.36l3.69,2.15A1.57,1.57,0,0,1,87.81,85.61Zm1.84-24.92a7.78,7.78,0,1,1,7.78-7.77A7.78,7.78,0,0,1,89.65,60.69Z"/></svg>